<?xml version="1.0" encoding="UTF-8" standalone="no"?>
<!DOCTYPE svg PUBLIC "-//W3C//DTD SVG 1.1//EN" "http://www.w3.org/Graphics/SVG/1.1/DTD/svg11.dtd">
<svg width="100%" height="100%" viewBox="0 0 1200 300" version="1.1" xmlns="http://www.w3.org/2000/svg" xmlns:xlink="http://www.w3.org/1999/xlink" xml:space="preserve" xmlns:serif="http://www.serif.com/" style="fill-rule:evenodd;clip-rule:evenodd;stroke-linejoin:round;stroke-miterlimit:2;">
    <g transform="matrix(1.333333,0,0,1.333333,0,0)">
        <path d="M259.258,178.562L236.816,178.609L236.781,112.995C236.781,112.995 232.953,112.727 232.953,111.593C232.951,108.643 232.39,97.807 232.389,95.885C232.387,93.123 236.77,92.383 236.77,92.383L259.16,92.336L259.258,178.562ZM259.207,112.961L258.204,114.31C258.204,114.31 241.882,113.775 237.637,113.782C237.215,113.782 236.93,112.995 236.93,112.995L228.176,113.008L228.176,92.383L259.207,92.336L259.207,112.961ZM245.938,85.508C241.895,85.508 238.887,84.203 236.91,81.594C235.004,78.918 234.047,75.496 234.047,71.328C234.047,67.16 234.988,63.77 236.863,61.16C238.871,58.453 241.863,57.102 245.84,57.102C249.945,57.07 252.953,58.406 254.863,61.109C256.742,63.723 257.68,67.109 257.68,71.281C257.68,75.449 256.742,78.887 254.863,81.594C252.984,84.203 250.008,85.508 245.938,85.508ZM298.168,178.516L275.727,178.562L275.68,92.336L293.395,92.336L293.424,115.695C293.424,115.695 294.777,118.302 294.572,118.413C294.253,118.586 290.325,118.809 290.325,118.809L290.225,116.74L293.223,116.258C293.223,116.258 294.32,109.846 295.16,107.137C296.941,101.215 299.602,96.793 303.133,93.863C306.73,90.934 311.074,89.473 316.168,89.473L317.168,89.473C324.871,89.473 330.824,92.75 335.027,99.305C339.289,105.77 341.422,115.715 341.422,129.145L341.473,178.465L319.078,178.516L319.031,128.383C319.031,124.402 318.094,121.172 316.215,118.691C314.402,116.082 311.887,114.777 308.672,114.777C305.488,114.809 302.91,116.113 300.938,118.691C299.059,121.207 298.121,124.547 298.121,128.715L298.168,178.516ZM379.906,178.418L357.512,178.418L357.418,64.406L379.809,64.406L379.906,178.418ZM379.809,84.984L349.777,85.031L349.777,64.406L379.809,64.359L379.809,84.984ZM430.227,181.473C424.242,181.473 418.91,180.328 414.234,178.035C409.555,175.777 405.574,172.609 402.297,168.535C399.082,164.492 396.617,159.812 394.898,154.5C393.242,149.184 392.414,143.5 392.414,137.453L392.414,133.73C392.414,127.492 393.273,121.652 394.992,116.207C396.773,110.797 399.305,106.055 402.582,101.98C405.863,97.938 409.84,94.77 414.52,92.48C419.199,90.156 424.418,88.992 430.18,88.992C436.004,88.992 441.207,90.141 445.793,92.43C450.473,94.723 454.449,97.891 457.727,101.934C461.039,106.008 463.551,110.75 465.27,116.16C467.086,121.57 467.992,127.395 467.992,133.633L467.992,137.359C467.992,143.406 467.133,149.086 465.414,154.402C463.793,159.719 461.34,164.414 458.062,168.488C454.848,172.531 450.902,175.711 446.223,178.035C441.543,180.328 436.211,181.473 430.227,181.473ZM430.227,157.746C433.664,157.746 436.496,156.805 438.727,154.93C441.016,153.051 442.734,150.441 443.883,147.098C445.027,143.66 445.602,139.809 445.602,135.543C445.602,131.055 444.98,127.141 443.738,123.801C442.594,120.363 440.859,117.656 438.535,115.684C436.242,113.711 433.457,112.723 430.18,112.723C426.902,112.754 424.117,113.758 421.824,115.73C419.531,117.703 417.766,120.41 416.523,123.848C415.379,127.188 414.805,131.105 414.805,135.594C414.805,139.855 415.379,143.707 416.523,147.145C417.703,150.457 419.438,153.051 421.73,154.93C424.02,156.805 426.852,157.746 430.227,157.746Z" style="fill:rgb(20,184,166);fill-rule:nonzero;"/>
    </g>
    <g transform="matrix(1.037714,0,0,1.333333,142.673074,0)">
        <path d="M505.277,182.023L482.625,182.023L482.625,65.559L505.277,65.559L505.277,182.023ZM552.395,182.023L502.086,182.023L502.086,162.027L552.395,162.133L552.395,182.023ZM639.078,182.023L621.527,182.023L621.527,156.285L617.914,156.285L617.914,127.672C617.914,122.781 616.637,119.129 614.082,116.719C611.742,114.164 608.02,112.891 602.914,112.891C600.293,112.891 597.102,112.961 593.344,113.102C589.656,113.172 585.898,113.316 582.07,113.527C578.312,113.598 574.98,113.742 572.07,113.953L572.07,95.234C574.484,95.02 577.176,94.844 580.156,94.703C583.273,94.418 586.465,94.277 589.727,94.277C593.059,94.137 596.145,94.062 598.98,94.062C607.844,94.062 615.219,95.27 621.105,97.68C627.059,100.02 631.562,103.707 634.609,108.742C637.59,113.707 639.078,120.227 639.078,128.312L639.078,182.023ZM593.664,184.258C587.352,184.258 581.855,183.191 577.176,181.066C572.426,178.797 568.738,175.605 566.117,171.492C563.562,167.238 562.285,162.168 562.285,156.285C562.285,149.973 563.812,144.832 566.859,140.863C570.051,136.68 574.484,133.629 580.156,131.715C585.828,129.66 592.492,128.633 600.152,128.633L620.254,128.633L620.254,141.926L599.832,141.926C594.797,141.926 590.898,143.168 588.133,145.648C585.508,148.059 584.195,151.285 584.195,155.328C584.195,159.227 585.508,162.418 588.133,164.898C590.898,167.238 594.797,168.41 599.832,168.41C602.953,168.41 605.789,167.879 608.34,166.812C611.035,165.68 613.234,163.766 614.934,161.07C616.707,158.375 617.699,154.652 617.914,149.902L623.336,156.18C622.77,162.203 621.281,167.309 618.871,171.492C616.531,175.605 613.27,178.797 609.086,181.066C604.832,183.191 599.691,184.258 593.664,184.258ZM713.637,184.895C706.547,184.895 700.27,183.406 694.812,180.43C689.422,177.309 685.133,172.875 681.941,167.133C678.891,161.246 677.227,154.156 676.941,145.859L680.348,145.859L680.348,182.023L662.797,182.023L662.797,65.559L684.918,65.559L684.918,123.844L679.07,132.887C679.426,123.949 681.16,116.508 684.281,110.551C687.402,104.594 691.621,100.125 696.938,97.148C702.254,94.172 708.281,92.68 715.02,92.68C721.047,92.68 726.504,93.781 731.398,95.977C736.219,98.246 740.332,101.402 743.734,105.445C747.352,109.344 750.082,114.023 751.926,119.484C753.77,124.73 754.691,130.512 754.691,136.82L754.691,140.117C754.691,146.43 753.699,152.312 751.715,157.773C749.941,163.09 747.246,167.809 743.629,171.918C740.012,175.961 735.652,179.152 730.547,181.492C725.512,183.762 719.875,184.895 713.637,184.895ZM708.637,166.176C713.387,166.176 717.535,165.004 721.082,162.664C724.77,160.324 727.535,157.102 729.379,152.988C731.504,148.734 732.566,143.875 732.566,138.414C732.566,132.957 731.504,128.242 729.379,124.27C727.465,120.086 724.699,116.895 721.082,114.699C717.535,112.43 713.387,111.293 708.637,111.293C704.312,111.293 700.305,112.324 696.617,114.379C692.93,116.223 689.918,119.023 687.578,122.781C685.379,126.398 684.281,130.828 684.281,136.074L684.281,142.457C684.281,147.422 685.449,151.711 687.789,155.328C690.129,158.801 693.18,161.531 696.938,163.516C700.625,165.289 704.523,166.176 708.637,166.176ZM805.852,184.684C793.867,184.684 784.508,182.199 777.77,177.238C771.035,172.203 767.488,165.219 767.137,156.285L787.129,156.285C787.414,159.262 789.047,161.992 792.023,164.473C795.07,166.812 799.789,167.984 806.168,167.984C811.418,167.984 815.598,167.027 818.719,165.113C821.91,163.199 823.504,160.609 823.504,157.348C823.504,154.512 822.301,152.242 819.891,150.539C817.551,148.84 813.473,147.668 807.656,147.031L800,146.285C790.355,145.293 782.91,142.562 777.664,138.098C772.488,133.559 769.898,127.602 769.898,120.227C769.898,114.273 771.355,109.273 774.262,105.23C777.309,101.191 781.457,98.105 786.707,95.977C791.953,93.852 797.98,92.789 804.785,92.789C815.492,92.789 824.145,95.199 830.738,100.02C837.332,104.629 840.77,111.473 841.055,120.547L821.164,120.547C820.883,117.5 819.359,114.91 816.594,112.785C813.898,110.656 809.926,109.594 804.68,109.594C800,109.594 796.348,110.48 793.727,112.25C791.242,114.094 790.004,116.469 790.004,119.379C790.004,122.07 791.031,124.164 793.086,125.652C795.145,127.141 798.512,128.172 803.191,128.738L810.848,129.48C821.059,130.547 829.07,133.383 834.887,137.992C840.77,142.527 843.715,148.699 843.715,156.496C843.715,162.242 842.117,167.238 838.926,171.492C835.809,175.676 831.375,178.973 825.633,181.387C820.031,183.582 813.438,184.684 805.852,184.684Z" style="fill:white;fill-rule:nonzero;"/>
    </g>
    <g transform="matrix(1,0,0,1,204.940212,134.963541)">
        <g transform="matrix(1,0,0,1,-86,-107)">
            <clipPath id="_clip1">
                <rect x="0" y="0" width="172" height="214"/>
            </clipPath>
            <g clip-path="url(#_clip1)">
                <g transform="matrix(1,0,0,1,-10.324377,-18.853211)">
                    <g transform="matrix(1,0,0,1,-41.367473,-13.340844)">
                        <g transform="matrix(1,0,0,1,-66.40815,6.094055)">
                            <path d="M214.6,239.6C200.8,239.6 189,236.6 179.2,230.6C169.333,224.467 161.2,216.467 154.8,206.6C148.333,196.6 143.567,185.767 140.5,174.1C137.433,162.5 135.9,151.233 135.9,140.3L135.9,134.4C135.9,122.333 137.433,110.467 140.5,98.8C143.7,86.933 148.467,76.267 154.8,66.8C161.333,57.267 169.467,49.667 179.2,44C188.933,38.333 200.3,35.5 213.3,35.5C227.233,35.433 239.567,38.767 250.3,45.5C261.1,51.967 269.767,61.2 276.3,73.2C282.833,85 286.667,98.767 287.8,114.5L249.1,114.5C248.1,107.833 246,102 242.8,97C239.6,92.133 235.5,88.367 230.5,85.7C225.5,82.9 219.8,81.5 213.4,81.5C207.467,81.5 202.067,82.833 197.2,85.5C192.467,88.1 188.433,91.9 185.1,96.9C181.9,101.633 179.4,107.433 177.6,114.3C175.933,121.233 175.1,129 175.1,137.6C175.1,146.2 175.933,153.967 177.6,160.9C179.467,167.7 182.067,173.6 185.4,178.6C188.867,183.467 193,187.233 197.8,189.9C202.733,192.367 208.333,193.6 214.6,193.6C224.267,193.6 232.433,190.567 239.1,184.5C245.9,178.567 250,170.567 251.4,160.5L290.1,160.5C288.9,174.9 285.1,188.1 278.7,200.1C272.3,212.1 263.7,221.733 252.9,229C242.033,236.067 229.267,239.6 214.6,239.6Z" style="fill:rgb(20,184,166);fill-rule:nonzero;"/>
                        </g>
                    </g>
                    <g transform="matrix(1,0,0,1,-41.367473,-13.340844)">
                        <g transform="matrix(1,0,0,1,-66.40815,6.094055)">
                            <path d="M181.1,26.1L195.9,71.9L244.1,71.8C207.603,87.899 118.395,158.884 146.53,198.351C146.585,198.428 146.973,198.824 146.973,198.824C146.973,199.129 153.38,204.444 153.38,204.444L153.47,204.49L155.962,208.324C155.975,208.345 156.051,208.465 156.051,208.465L156.192,208.674C156.198,208.677 156.246,208.757 156.263,208.773C88.063,199.373 150.3,110.7 220.5,79.8L221.3,79.2L190.6,79.2L181.1,50L171.6,79.2L140.8,79.2L165.8,97.2L158.9,118.4C154.6,122.7 150.7,127 146.9,131.7L157.1,100L118.1,71.8L166.3,71.9L181.1,26.1Z" style="fill:white;"/>
                        </g>
                    </g>
                </g>
            </g>
        </g>
    </g>
</svg>
